<svg xmlns="http://www.w3.org/2000/svg" version="1.1" viewBox="0 0 120 30" class="brand-logo__svg svg-icon svg-fill" data-v-774ceefc=""><path pid="0" d="M9.8 1H8.6C5.4 1 2.8 3.6 2.8 6.7v1.4H1c-.5 0-1 .5-1 .9v2.8c0 .5.4.9 1 .9h1.9V28c0 .5.4.9 1 .9H7c.5 0 1-.4 1-.9V12.8h2.1c.5 0 .9-.5.9-.9V9.1c0-.5-.4-.9-.9-.9H7.8V7c0-.7.6-1.4 1.3-1.4h.7c.5 0 1-.4 1-.9V2c0-.5-.4-1-1-1zm14.6 7.2h-3.1c-.5 0-1 .4-1 .9V28c0 .5.5.9 1 .9h3.1c.5 0 1-.4 1-.9V9.1c-.1-.5-.5-.9-1-.9zm19.8 16.2h-.8c-.7 0-1.4-.6-1.4-1.4V12.8h2.1c.5 0 1-.4 1-.9V9.1c0-.5-.4-.9-1-.9H42V2c0-.5-.4-.9-1-.9h-3.1c-.5 0-1 .5-1 .9v6.2h-1.4c-.5 0-1 .4-1 .9v2.8c0 .5.4.9 1 .9h1.4v10.5c0 3.2 2.6 5.7 5.8 5.7H44c.5 0 1-.4 1-.9v-2.8c.2-.5-.2-.9-.8-.9zm17.4-.1h-.8c-.7 0-1.4-.6-1.4-1.4V2c0-.5-.4-.9-1-.9h-3.1c-.5 0-.9.4-.9.9v21.3c0 3.2 2.6 5.7 5.7 5.7h1.4c.5 0 1-.4 1-.9v-2.8c0-.5-.4-1-.9-1zM78.1 8.2h-1.4c-3.2 0-5.8 2.6-5.8 5.7v9.4c0 3.1 2.6 5.7 5.8 5.7h6.6c.3 0 .6-.2.6-.5V13.9c0-3.1-2.6-5.7-5.8-5.7zM79 23c0 .7-.6 1.4-1.4 1.4h-.3c-.7 0-1.4-.6-1.4-1.4v-8.8c0-.7.6-1.4 1.4-1.4h.3c.7 0 1.4.6 1.4 1.4V23zm21-14.8h-1.4c-.3 0-.5 0-.8.1V2c0-.5-.5-.9-1-.9h-3.1c-.5 0-1 .4-1 .9v26.5c0 .3.2.5.5.5h6.7c3.2 0 5.7-2.6 5.7-5.7v-9.4c.1-3.1-2.5-5.7-5.6-5.7zm.7 14.8c0 .7-.6 1.4-1.3 1.4H99c-.7 0-1.3-.6-1.3-1.4v-8.8c0-.7.6-1.4 1.3-1.4h.4c.7 0 1.3.6 1.3 1.4V23zM119 8.2h-3.1c-.5 0-1 .4-1 1v2.9c0 .6.5 1 1 1h3.1c.5 0 1-.4 1-1V9.2c-.1-.6-.5-1-1-1zm0 15.9h-3.1c-.5 0-1 .4-1 1V28c0 .6.5 1 1 1h3.1c.5 0 1-.4 1-1v-2.9c-.1-.6-.5-1-1-1z"/></svg>