<svg xmlns="http://www.w3.org/2000/svg" version="1.1" viewBox="0 0 19.99 19.99" class="svg-icon svg-fill" style="width:20px;height:20px" data-v-907dd1cc=""><path pid="0" d="M17.3 0H2.69A2.7 2.7 0 000 2.69V17.3A2.7 2.7 0 002.69 20H9.9v-7.15H8.05a.45.45 0 01-.44-.44v-2.3A.43.43 0 018 9.67h1.9V7.44a3.63 3.63 0 013.88-4h1.89a.43.43 0 01.43.43v1.96a.43.43 0 01-.43.44h-1.16c-1.26 0-1.5.6-1.5 1.47v1.93h2.75a.44.44 0 01.44.49l-.27 2.3a.45.45 0 01-.44.39H13V20h4.3a2.7 2.7 0 002.7-2.7V2.69A2.7 2.7 0 0017.3 0z" fill="#475993" fill-rule="evenodd"/></svg>