<svg xmlns="http://www.w3.org/2000/svg" version="1.1" viewBox="0 0 19.97 19.97" class="svg-icon svg-fill" style="width:20px;height:20px" data-v-907dd1cc=""><defs><linearGradient id="svgicon_icon-instagram_a" x1="-46.05" y1="24.8" x2="-46.05" y2="25.79" gradientTransform="matrix(19.97 0 0 -19.97 929.29 515.09)" gradientUnits="userSpaceOnUse"><stop offset="0" stop-color="#e09b3d"/><stop offset=".3" stop-color="#c74c4d"/><stop offset=".6" stop-color="#c21975"/><stop offset="1" stop-color="#7024c4"/></linearGradient><linearGradient id="svgicon_icon-instagram_b" x1="-43.76" y1="24.15" x2="-43.76" y2="26.06" gradientTransform="matrix(10.33 0 0 -10.33 461.86 269.33)" xmlns:xlink="http://www.w3.org/1999/xlink" xlink:href="#svgicon_icon-instagram_a"/><linearGradient id="svgicon_icon-instagram_c" x1="-28.7" y1="17.8" x2="-28.7" y2="25.78" gradientTransform="matrix(2.47 0 0 -2.47 86.18 63.96)" xmlns:xlink="http://www.w3.org/1999/xlink" xlink:href="#svgicon_icon-instagram_a"/></defs><path pid="0" d="M14 0H6a6 6 0 00-6 6v8a6 6 0 006 6h8a6 6 0 006-6V6a6 6 0 00-6-6zm4 14a4 4 0 01-4 4H6a3.94 3.94 0 01-4-4V6a3.93 3.93 0 014-4h8a3.94 3.94 0 014 4v8z" fill="url(#svgicon_icon-instagram_a)"/><path pid="1" d="M10 4.82A5.17 5.17 0 1015.15 10 5.17 5.17 0 0010 4.82zm0 8.32A3.16 3.16 0 1113.14 10 3.15 3.15 0 0110 13.14z" fill="url(#svgicon_icon-instagram_b)"/><circle pid="2" cx="15.16" cy="4.86" r="1.24" fill="url(#svgicon_icon-instagram_c)"/></svg>